<?xml version="1.0" encoding="utf-8"?>
<!-- Generator: Adobe Illustrator 16.0.0, SVG Export Plug-In . SVG Version: 6.00 Build 0)  -->
<!DOCTYPE svg PUBLIC "-//W3C//DTD SVG 1.1//EN" "http://www.w3.org/Graphics/SVG/1.1/DTD/svg11.dtd">
<svg version="1.1" id="Layer_1" xmlns="http://www.w3.org/2000/svg" xmlns:xlink="http://www.w3.org/1999/xlink" x="0px" y="0px"
	 width="612px" height="792px" viewBox="0 0 612 792" enable-background="new 0 0 612 792" xml:space="preserve">
<g id="unicorn" display="none">
	<g display="inline">
		<path fill="#FFFFFF" d="M392.641,397.92c-10.713-12.233,14.16-31.68,14.16-31.68s11.061-10.137,8.16-28.56
			c-2.732-17.345-13.08-22.025-14.283-22.515c-0.07-0.026-0.117-0.046-0.117-0.046s0.043,0.016,0.117,0.046
			c1.492,0.579,18.385,6.762,25.082-7.246c11.857-24.798-8.639-49.439-8.639-49.439s1.908,15.138-3.641,23.826
			c-8.346,13.071-19.594,7.308-18.92,6.174c0,0,16.828-7.576,12.959-24.48c-3.867-16.904-21.359-28.32-21.359-28.32
			s18.684,5.436,24.721-4.08c10.047-15.838-7.201-34.08-7.201-34.08s-0.451,19.213-14.16,17.52
			c-13.707-1.693-14.16-16.32-14.16-16.32s-2.834-6.337,0.721-16.08c3.557-9.743,2.564-23.12-11.039-27.36
			c-13.828-4.309-23.086-2.515-27.158-1.188c-1.432,0.61-2.363,0.948-2.363,0.948s0.803-0.44,2.363-0.948
			c4.439-1.894,13.719-6.427,15.158-11.771c5.82-21.635-8.4-27.36-8.4-27.36s7.133,24.527-14.16,19.2
			c-13.398-3.352,0.303-21.899-19.92-31.68c-15.095-7.3-41.22,10.144-49.066,15.813C260.08,119.35,259.2,120,259.2,120
			s0.83-0.649,2.295-1.708c3.135-2.344,8.9-6.696,13.574-10.449c16.603-13.333,11.006-23.791,13.944-37.474
			c2.822-13.143,2.551-19.397-2.453-19.489c-5.004-0.092-7.347,6.084-10.56,11.04c-3.213,4.956-23.383,15.115-36.409,23.467
			c-12.462,7.991-9.688,32.901-9.671,33.652c0,0-3.125-2.939-6.721-6.96c-3.595-4.02-20.362-5.485-26.879-7.2
			c-13.923-3.662-24.24-11.76-24.24-11.76s-1.202,13.933,5.52,20.4c10.246,9.858,19.986,10.228,24.305,9.771
			c1.489-0.298,2.335-0.412,2.335-0.412s-0.848,0.254-2.335,0.412c-2.72,0.545-7.595,1.714-13.42,3.947L0,0
			c0,0,124.512,116.656,161.113,153.636c-13.577,17.073-29.761,39.574-42.553,57.083c-22.599,30.933-29.578,47.624-31.68,69.84
			c-2.102,22.216,21.89,21.198,37.68,24.479c3.305,0.687,6.07,0.386,8.539-0.617c1.234,3.886,1.671,8.989-3.019,11.657
			c-8.68,4.938-15.6-6.479-15.6-6.479s-4.025,5.123,0,12.239c4.741,8.383,16.32,7.681,16.32,7.681s-9.674,1.048-13.2,17.279
			c-2.916,13.422,2.678,26.944,13.92,29.761c16.99,4.256,17.52-11.04,17.52-11.04s-10.042,3.547-13.68-9.36
			c-3.639-12.907,7.733-20.511,20.64-25.68c17.837-7.145,7.2-27.36,7.2-27.36s-7.822,15.3-18.225,7.806
			c-4.197-3.023-3.884-9.135-2.777-13.989c4.999-5.899,10.12-13.784,18.602-19.977c16.883-12.324,47.401-16.587,68.16-20.16
			c20.758-3.572,29.136-6.137,36-24.959c6.864-18.823,1.439-38.4,1.439-38.4l5.521,0.96c-0.243,0.058,7.901,40.017-12.166,55.872
			c-26.037,20.573-67.648,66.579-82.154,117.168c-16.016,55.855-13.44,109.679-13.44,109.679s35.051-47.555,60.24-56.879
			c40.471-14.982,64.648,1.459,86.879-4.561c22.232-6.02,19.029-30.073,39.121-31.919c20.092-1.848,10.561,24,10.561,24
			s17.26,23.568,36,22.08c30.566-2.43,34.559-30.48,34.559-30.48S411.266,419.188,392.641,397.92z"/>
	</g>
	<g display="inline">
		<path fill="none" stroke="#000000" stroke-miterlimit="10" d="M392.641,397.92c-10.713-12.233,14.16-31.68,14.16-31.68
			s11.061-10.137,8.16-28.56c-2.732-17.345-13.08-22.025-14.283-22.515c-0.07-0.026-0.117-0.046-0.117-0.046
			s0.043,0.016,0.117,0.046c1.492,0.579,18.385,6.762,25.082-7.246c11.857-24.798-8.639-49.439-8.639-49.439
			s1.908,15.138-3.641,23.826c-8.346,13.071-19.594,7.308-18.92,6.174c0,0,16.828-7.576,12.959-24.48
			c-3.867-16.904-21.359-28.32-21.359-28.32s18.684,5.436,24.721-4.08c10.047-15.838-7.201-34.08-7.201-34.08
			s-0.451,19.213-14.16,17.52c-13.707-1.693-14.16-16.32-14.16-16.32s-2.834-6.337,0.721-16.08
			c3.557-9.743,2.564-23.12-11.039-27.36c-13.828-4.309-23.086-2.515-27.158-1.188c-1.432,0.61-2.363,0.948-2.363,0.948
			s0.803-0.44,2.363-0.948c4.439-1.894,13.719-6.427,15.158-11.771c5.82-21.635-8.4-27.36-8.4-27.36s7.133,24.527-14.16,19.2
			c-13.398-3.352,0.303-21.899-19.92-31.68c-15.095-7.3-41.22,10.144-49.066,15.813C260.08,119.35,259.2,120,259.2,120
			s0.83-0.649,2.295-1.708c3.135-2.344,8.9-6.696,13.574-10.449c16.603-13.333,11.006-23.791,13.944-37.474
			c2.822-13.143,2.551-19.397-2.453-19.489c-5.004-0.092-7.347,6.084-10.56,11.04c-3.213,4.956-23.383,15.115-36.409,23.467
			c-12.462,7.991-9.688,32.901-9.671,33.652c0,0-3.125-2.939-6.721-6.96c-3.595-4.02-20.362-5.485-26.879-7.2
			c-13.923-3.662-24.24-11.76-24.24-11.76s-1.202,13.933,5.52,20.4c10.246,9.858,19.986,10.228,24.305,9.771
			c1.489-0.298,2.335-0.412,2.335-0.412s-0.848,0.254-2.335,0.412c-2.72,0.545-7.595,1.714-13.42,3.947L0,0
			c0,0,124.512,116.656,161.113,153.636c-13.577,17.073-29.761,39.574-42.553,57.083c-22.599,30.933-29.578,47.624-31.68,69.84
			c-2.102,22.216,21.89,21.198,37.68,24.479c3.305,0.687,6.07,0.386,8.539-0.617c1.234,3.886,1.671,8.989-3.019,11.657
			c-8.68,4.938-15.6-6.479-15.6-6.479s-4.025,5.123,0,12.239c4.741,8.383,16.32,7.681,16.32,7.681s-9.674,1.048-13.2,17.279
			c-2.916,13.422,2.678,26.944,13.92,29.761c16.99,4.256,17.52-11.04,17.52-11.04s-10.042,3.547-13.68-9.36
			c-3.639-12.907,7.733-20.511,20.64-25.68c17.837-7.145,7.2-27.36,7.2-27.36s-7.822,15.3-18.225,7.806
			c-4.197-3.023-3.884-9.135-2.777-13.989c4.999-5.899,10.12-13.784,18.602-19.977c16.883-12.324,47.401-16.587,68.16-20.16
			c20.758-3.572,29.136-6.137,36-24.959c6.864-18.823,1.439-38.4,1.439-38.4l5.521,0.96c-0.243,0.058,7.901,40.017-12.166,55.872
			c-26.037,20.573-67.648,66.579-82.154,117.168c-16.016,55.855-13.44,109.679-13.44,109.679s35.051-47.555,60.24-56.879
			c40.471-14.982,64.648,1.459,86.879-4.561c22.232-6.02,19.029-30.073,39.121-31.919c20.092-1.848,10.561,24,10.561,24
			s17.26,23.568,36,22.08c30.566-2.43,34.559-30.48,34.559-30.48S411.266,419.188,392.641,397.92z"/>
	</g>
</g>
<g id="Deer" display="none">
	<g display="inline">
		<path fill="#FFFFFF" d="M445.58,47.52C442.809,26.577,458.061,0,458.061,0s-30.969,15.462-31.199,45.6
			c-0.189,24.595,17.527,32.714,9.6,64.08c-4.939,19.539-26.881,25.2-26.881,25.2s-22.227-4.364-38.4-19.2
			c-16.908-15.511-13.199-39.84-13.199-39.84s-11.977,22.89-7.439,36.96c7.225,22.411,26.074,30.685,26.16,30.72
			c0,0-17.383,3.528-39.258,13.177c-20.92,9.226-33.362,29.575-33.223,29.543c0,0-8.358-5.833-9.84-18.72
			c-2.23-19.404,8.88-36,8.88-36s-24.424,12.777-27.6,39.12c-3.523,29.228,1.088,39.327,1.088,39.327l34.078,23.516
			c0,0,7.871-5.724,17.242-20.448c14.26-22.403,25.76-30.309,54.633-36.155c32.729-6.628,63.377-19.041,79.832-53.616
			C481.297,83.839,448.357,68.503,445.58,47.52z M429.346,199.409c-12.561-9.74-66.244-3.794-86.801,18.957
			c-13.328,14.751-6.57,26.279-17.145,36.234c-10.574,9.956-16.932-1.439-16.932-1.439l-0.857-13.678l-34.078-25.436
			c0,0-9.965,7.093-22.719,10.798c-7.064,2.052-12.882,3.018-16.674,3.473c-3.793-0.455-9.611-1.42-16.675-3.473
			c-12.754-3.705-22.718-10.798-22.718-10.798l-34.077,25.436l-0.857,13.678c0,0-6.357,11.396-16.931,1.439
			c-10.574-9.955-3.818-21.482-17.146-36.234c-20.556-22.751-74.239-28.696-86.8-18.957c-12.562,9.739,17.201,35.886,40.721,57.59
			c22.986,21.213,38.871,15.249,49.508,14.158c10.638-1.092,22.695-4.18,24.861,5.999c2.167,10.178-7.917,34.559,3.858,57.351
			c12.509,24.214,16.31,23.547,22.084,49.691c10.613,48.058-0.285,37.199,17.61,60.859c7.848,10.377,21.936,13.143,31.522,13.783
			v0.041c0.02-0.037,1.963,0.137,5.04,0.131c3.077,0.006,5.019-0.168,5.04-0.131v-0.041c9.587-0.641,23.675-3.406,31.523-13.783
			c17.894-23.66,6.996-12.801,17.609-60.859c5.774-26.145,9.575-25.478,22.083-49.691c11.775-22.792,1.691-47.173,3.857-57.351
			c2.166-10.179,14.225-7.091,24.861-5.999c10.639,1.091,26.523,7.055,49.51-14.158
			C412.145,235.294,441.906,209.148,429.346,199.409z M140.213,213.035c9.372,14.724,17.243,20.448,17.243,20.448l34.077-23.516
			c0,0,4.611-10.099,1.088-39.327c-3.176-26.343-27.6-39.12-27.6-39.12s11.111,16.596,8.88,36c-1.482,12.887-9.84,18.72-9.84,18.72
			c0.14,0.032-12.303-20.317-33.222-29.543c-21.875-9.649-39.258-13.177-39.258-13.177c0.086-0.035,18.935-8.309,26.16-30.72
			c4.536-14.071-7.44-36.96-7.44-36.96s3.708,24.33-13.2,39.84c-16.173,14.836-38.4,19.2-38.4,19.2s-21.941-5.661-26.88-25.2
			c-7.928-31.366,9.789-39.485,9.6-64.08C41.189,15.462,10.221,0,10.221,0s15.252,26.577,12.48,47.52
			c-2.777,20.983-35.715,36.319-16.952,75.744c16.455,34.575,47.103,46.988,79.832,53.616
			C114.453,182.727,125.954,190.632,140.213,213.035z"/>
	</g>
	<g display="inline">
		<path fill="none" stroke="#000000" stroke-miterlimit="10" d="M445.58,47.52C442.809,26.577,458.061,0,458.061,0
			s-30.969,15.462-31.199,45.6c-0.189,24.595,17.527,32.714,9.6,64.08c-4.939,19.539-26.881,25.2-26.881,25.2
			s-22.227-4.364-38.4-19.2c-16.908-15.511-13.199-39.84-13.199-39.84s-11.977,22.89-7.439,36.96
			c7.225,22.411,26.074,30.685,26.16,30.72c0,0-17.383,3.528-39.258,13.177c-20.92,9.226-33.362,29.575-33.223,29.543
			c0,0-8.358-5.833-9.84-18.72c-2.23-19.404,8.88-36,8.88-36s-24.424,12.777-27.6,39.12c-3.523,29.228,1.088,39.327,1.088,39.327
			l34.078,23.516c0,0,7.871-5.724,17.242-20.448c14.26-22.403,25.76-30.309,54.633-36.155c32.729-6.628,63.377-19.041,79.832-53.616
			C481.297,83.839,448.357,68.503,445.58,47.52z M429.346,199.409c-12.561-9.74-66.244-3.794-86.801,18.957
			c-13.328,14.751-6.57,26.279-17.145,36.234c-10.574,9.956-16.932-1.439-16.932-1.439l-0.857-13.678l-34.078-25.436
			c0,0-9.965,7.093-22.719,10.798c-7.064,2.052-12.882,3.018-16.674,3.473c-3.793-0.455-9.611-1.42-16.675-3.473
			c-12.754-3.705-22.718-10.798-22.718-10.798l-34.077,25.436l-0.857,13.678c0,0-6.357,11.396-16.931,1.439
			c-10.574-9.955-3.818-21.482-17.146-36.234c-20.556-22.751-74.239-28.696-86.8-18.957c-12.562,9.739,17.201,35.886,40.721,57.59
			c22.986,21.213,38.871,15.249,49.508,14.158c10.638-1.092,22.695-4.18,24.861,5.999c2.167,10.178-7.917,34.559,3.858,57.351
			c12.509,24.214,16.31,23.547,22.084,49.691c10.613,48.058-0.285,37.199,17.61,60.859c7.848,10.377,21.936,13.143,31.522,13.783
			v0.041c0.02-0.037,1.963,0.137,5.04,0.131c3.077,0.006,5.019-0.168,5.04-0.131v-0.041c9.587-0.641,23.675-3.406,31.523-13.783
			c17.894-23.66,6.996-12.801,17.609-60.859c5.774-26.145,9.575-25.478,22.083-49.691c11.775-22.792,1.691-47.173,3.857-57.351
			c2.166-10.179,14.225-7.091,24.861-5.999c10.639,1.091,26.523,7.055,49.51-14.158
			C412.145,235.294,441.906,209.148,429.346,199.409z M140.213,213.035c9.372,14.724,17.243,20.448,17.243,20.448l34.077-23.516
			c0,0,4.611-10.099,1.088-39.327c-3.176-26.343-27.6-39.12-27.6-39.12s11.111,16.596,8.88,36c-1.482,12.887-9.84,18.72-9.84,18.72
			c0.14,0.032-12.303-20.317-33.222-29.543c-21.875-9.649-39.258-13.177-39.258-13.177c0.086-0.035,18.935-8.309,26.16-30.72
			c4.536-14.071-7.44-36.96-7.44-36.96s3.708,24.33-13.2,39.84c-16.173,14.836-38.4,19.2-38.4,19.2s-21.941-5.661-26.88-25.2
			c-7.928-31.366,9.789-39.485,9.6-64.08C41.189,15.462,10.221,0,10.221,0s15.252,26.577,12.48,47.52
			c-2.777,20.983-35.715,36.319-16.952,75.744c16.455,34.575,47.103,46.988,79.832,53.616
			C114.453,182.727,125.954,190.632,140.213,213.035z"/>
	</g>
</g>
<g id="Fluer" display="none">
	<g display="inline">
		<path fill="#FFFFFF" d="M436.131,130.289c0,0-13.479,16.53-25.141,2.52c-9.859-11.846-23.432-32.98-60.515-28.634
			c-37.888,4.441-85.696,24.352-97.028,100.875c-2.183,14.741-3.458,29.883-3.812,44.897h-15.309
			c0.925-136.842,60.307-177.234,60.307-177.234L219.213,0l-75.421,72.714c0,0,59.382,40.392,60.306,177.234H188.79
			c-0.354-15.015-1.628-30.157-3.812-44.897c-11.332-76.523-59.141-96.434-97.029-100.875
			c-37.083-4.347-50.655,16.788-60.515,28.634c-11.661,14.01-25.14-2.52-25.14-2.52s-1.895,47.462,19.133,59.558
			s46.721-8.934,46.721-8.934s-6.674,7.771-5.339,13.057c2.592,10.27,10.901,8.247,10.901,8.247s16.75-26.071,36.709-21.532
			c18.534,4.215,54.985,23.526,62.631,69.264h-17.178c-3.977,0-7.2,3.224-7.2,7.2v2.285c0,3.977,3.224,7.2,7.2,7.2h18.481
			c-1.52,37.091-39.539,61.001-65.269,70.503c-28.373,10.479-50.058-3.894-50.058-3.894s15.05,100.861,83.875,59.786
			c29.706-17.729,44.608-69.694,45.899-126.396h15.093c-2.992,89.057-34.739,143.347-34.739,143.347l50.058,51.539l50.058-51.539
			c0,0-31.747-54.291-34.739-143.347h15.093c1.291,56.701,16.193,108.667,45.899,126.396c68.825,41.075,83.875-59.786,83.875-59.786
			s-21.685,14.372-50.058,3.894c-25.73-9.502-63.75-33.412-65.27-70.503h20.484c3.976,0,7.199-3.224,7.199-7.2v-2.285
			c0-3.977-3.224-7.2-7.199-7.2h-19.182c7.647-45.738,44.098-65.049,62.632-69.264c19.959-4.539,36.709,21.532,36.709,21.532
			s8.309,2.023,10.901-8.247c1.335-5.286-5.34-13.057-5.34-13.057s25.692,21.029,46.722,8.934
			C438.026,177.751,436.131,130.289,436.131,130.289z"/>
	</g>
	<g display="inline">
		<path fill="none" stroke="#000000" stroke-miterlimit="10" d="M436.131,130.289c0,0-13.479,16.53-25.141,2.52
			c-9.859-11.846-23.432-32.98-60.515-28.634c-37.888,4.441-85.696,24.352-97.028,100.875c-2.183,14.741-3.458,29.883-3.812,44.897
			h-15.309c0.925-136.842,60.307-177.234,60.307-177.234L219.213,0l-75.421,72.714c0,0,59.382,40.392,60.306,177.234H188.79
			c-0.354-15.015-1.628-30.157-3.812-44.897c-11.332-76.523-59.141-96.434-97.029-100.875
			c-37.083-4.347-50.655,16.788-60.515,28.634c-11.661,14.01-25.14-2.52-25.14-2.52s-1.895,47.462,19.133,59.558
			s46.721-8.934,46.721-8.934s-6.674,7.771-5.339,13.057c2.592,10.27,10.901,8.247,10.901,8.247s16.75-26.071,36.709-21.532
			c18.534,4.215,54.985,23.526,62.631,69.264h-17.178c-3.977,0-7.2,3.224-7.2,7.2v2.285c0,3.977,3.224,7.2,7.2,7.2h18.481
			c-1.52,37.091-39.539,61.001-65.269,70.503c-28.373,10.479-50.058-3.894-50.058-3.894s15.05,100.861,83.875,59.786
			c29.706-17.729,44.608-69.694,45.899-126.396h15.093c-2.992,89.057-34.739,143.347-34.739,143.347l50.058,51.539l50.058-51.539
			c0,0-31.747-54.291-34.739-143.347h15.093c1.291,56.701,16.193,108.667,45.899,126.396c68.825,41.075,83.875-59.786,83.875-59.786
			s-21.685,14.372-50.058,3.894c-25.73-9.502-63.75-33.412-65.27-70.503h20.484c3.976,0,7.199-3.224,7.199-7.2v-2.285
			c0-3.977-3.224-7.2-7.199-7.2h-19.182c7.647-45.738,44.098-65.049,62.632-69.264c19.959-4.539,36.709,21.532,36.709,21.532
			s8.309,2.023,10.901-8.247c1.335-5.286-5.34-13.057-5.34-13.057s25.692,21.029,46.722,8.934
			C438.026,177.751,436.131,130.289,436.131,130.289z"/>
	</g>
</g>
<g id="theCrown">
	<g>
		<path fill="#FFFFFF" d="M480.7,242.395c0-17.657-14.311-31.972-31.964-31.972c-3.711,0-7.271,0.64-10.584,1.803
			c-0.024-0.05-0.049-0.1-0.073-0.15c7.25-5.861,11.891-14.824,11.891-24.875c0-17.658-14.311-31.972-31.963-31.972
			c-8.414,0-16.064,3.257-21.772,8.573c-0.183-0.115-0.359-0.243-0.543-0.356c0.438-2.109,0.67-4.294,0.67-6.534
			c0-17.658-14.311-31.972-31.964-31.972c-16.962,0-30.83,13.218-31.891,29.917c-6.979,2.125-14.118,5.269-21.382,9.572
			c-15.597,9.238-29.193,24.689-40.438,41.292l-8.446-101.273l55.575,14.556c3.14,0,5.685-2.548,5.685-5.691V51.463
			c0-3.144-2.545-5.692-5.685-5.692L265.439,59.49l13.724-52.466c0-3.14-2.545-5.685-5.685-5.685H211.71
			c-3.139,0-5.684,2.545-5.684,5.685l13.711,52.417l-52.554-13.765c-3.139,0-5.684,2.548-5.684,5.691v61.849
			c0,3.144,2.545,5.691,5.684,5.691l55.583-14.558l-8.695,104.252c-11.605-17.684-25.863-34.404-42.357-44.174
			c-7.263-4.302-14.403-7.446-21.38-9.572c-1.061-16.699-14.93-29.917-31.893-29.917c-17.654,0-31.965,14.314-31.965,31.973
			c0,2.24,0.232,4.424,0.67,6.534c-0.184,0.114-0.361,0.242-0.543,0.357c-5.708-5.315-13.358-8.571-21.772-8.571
			c-17.654,0-31.965,14.313-31.965,31.969c0,10.051,4.642,19.013,11.893,24.874c-0.025,0.05-0.049,0.101-0.074,0.151
			c-3.313-1.163-6.872-1.802-10.582-1.802c-17.654,0-31.965,14.315-31.965,31.973c0,16.602,12.65,30.245,28.835,31.818
			c-3.362,76.905,19.391,185.7,19.391,185.7l0.348-0.496c0,0.128-0.005,0.256-0.005,0.384h381.314c0-0.182-0.007-0.361-0.008-0.543
			l0.46,0.655c0,0,22.753-108.798,19.39-185.704C468.049,272.639,480.7,258.997,480.7,242.395z M87.262,347.737
			c-8.445-35.615-17.166-84.195-9.307-108.82c13.834-43.35,48.551-58.432,85.685-39.937c22.785,11.348,35.309,56.424,39.447,74.21
			C155.727,282.846,114.756,310.055,87.262,347.737z M242.14,95.9c-7.555,0-13.68-6.125-13.68-13.68
			c0-7.556,6.125-13.68,13.68-13.68c7.556,0,13.681,6.125,13.681,13.68C255.82,89.775,249.695,95.9,242.14,95.9z M395.551,347.851
			c-27.513-37.772-68.551-65.055-116.002-74.704c4.21-17.816,16.886-62.828,39.651-74.167c37.134-18.495,71.851-3.413,85.685,39.937
			C412.752,263.568,404.005,312.225,395.551,347.851z"/>
	</g>
	<g>
		<path fill="none" stroke="#000000" stroke-miterlimit="10" d="M480.7,242.395c0-17.657-14.311-31.972-31.964-31.972
			c-3.711,0-7.271,0.64-10.584,1.803c-0.024-0.05-0.049-0.1-0.073-0.15c7.25-5.861,11.891-14.824,11.891-24.875
			c0-17.658-14.311-31.972-31.963-31.972c-8.414,0-16.064,3.257-21.772,8.573c-0.183-0.115-0.359-0.243-0.543-0.356
			c0.438-2.109,0.67-4.294,0.67-6.534c0-17.658-14.311-31.972-31.964-31.972c-16.962,0-30.83,13.218-31.891,29.917
			c-6.979,2.125-14.118,5.269-21.382,9.572c-15.597,9.238-29.193,24.689-40.438,41.292l-8.446-101.273l55.575,14.556
			c3.14,0,5.685-2.548,5.685-5.691V51.463c0-3.144-2.545-5.692-5.685-5.692L265.439,59.49l13.724-52.466
			c0-3.14-2.545-5.685-5.685-5.685H211.71c-3.139,0-5.684,2.545-5.684,5.685l13.711,52.417l-52.554-13.765
			c-3.139,0-5.684,2.548-5.684,5.691v61.849c0,3.144,2.545,5.691,5.684,5.691l55.583-14.558l-8.695,104.252
			c-11.605-17.684-25.863-34.404-42.357-44.174c-7.263-4.302-14.403-7.446-21.38-9.572c-1.061-16.699-14.93-29.917-31.893-29.917
			c-17.654,0-31.965,14.314-31.965,31.973c0,2.24,0.232,4.424,0.67,6.534c-0.184,0.114-0.361,0.242-0.543,0.357
			c-5.708-5.315-13.358-8.571-21.772-8.571c-17.654,0-31.965,14.313-31.965,31.969c0,10.051,4.642,19.013,11.893,24.874
			c-0.025,0.05-0.049,0.101-0.074,0.151c-3.313-1.163-6.872-1.802-10.582-1.802c-17.654,0-31.965,14.315-31.965,31.973
			c0,16.602,12.65,30.245,28.835,31.818c-3.362,76.905,19.391,185.7,19.391,185.7l0.348-0.496c0,0.128-0.005,0.256-0.005,0.384
			h381.314c0-0.182-0.007-0.361-0.008-0.543l0.46,0.655c0,0,22.753-108.798,19.39-185.704
			C468.049,272.639,480.7,258.997,480.7,242.395z M87.262,347.737c-8.445-35.615-17.166-84.195-9.307-108.82
			c13.834-43.35,48.551-58.432,85.685-39.937c22.785,11.348,35.309,56.424,39.447,74.21
			C155.727,282.846,114.756,310.055,87.262,347.737z M242.14,95.9c-7.555,0-13.68-6.125-13.68-13.68
			c0-7.556,6.125-13.68,13.68-13.68c7.556,0,13.681,6.125,13.681,13.68C255.82,89.775,249.695,95.9,242.14,95.9z M395.551,347.851
			c-27.513-37.772-68.551-65.055-116.002-74.704c4.21-17.816,16.886-62.828,39.651-74.167c37.134-18.495,71.851-3.413,85.685,39.937
			C412.752,263.568,404.005,312.225,395.551,347.851z"/>
	</g>
</g>
</svg>
