<?xml version="1.0" encoding="utf-8"?>
<!-- Generator: Adobe Illustrator 16.0.0, SVG Export Plug-In . SVG Version: 6.00 Build 0)  -->
<!DOCTYPE svg PUBLIC "-//W3C//DTD SVG 1.1//EN" "http://www.w3.org/Graphics/SVG/1.1/DTD/svg11.dtd">
<svg version="1.1" id="Layer_1" xmlns="http://www.w3.org/2000/svg" xmlns:xlink="http://www.w3.org/1999/xlink" x="0px" y="0px"
	 width="612px" height="792px" viewBox="0 0 612 792" enable-background="new 0 0 612 792" xml:space="preserve">
<g id="unicorn" display="none">
	<g display="inline">
		<path fill="#FFFFFF" d="M392.641,397.92c-10.713-12.233,14.16-31.68,14.16-31.68s11.061-10.137,8.16-28.56
			c-2.732-17.345-13.08-22.025-14.283-22.515c-0.07-0.026-0.117-0.046-0.117-0.046s0.043,0.016,0.117,0.046
			c1.492,0.579,18.385,6.762,25.082-7.246c11.857-24.798-8.639-49.439-8.639-49.439s1.908,15.138-3.641,23.826
			c-8.346,13.071-19.594,7.308-18.92,6.174c0,0,16.828-7.576,12.959-24.48c-3.867-16.904-21.359-28.32-21.359-28.32
			s18.684,5.436,24.721-4.08c10.047-15.838-7.201-34.08-7.201-34.08s-0.451,19.213-14.16,17.52
			c-13.707-1.693-14.16-16.32-14.16-16.32s-2.834-6.337,0.721-16.08c3.557-9.743,2.564-23.12-11.039-27.36
			c-13.828-4.309-23.086-2.515-27.158-1.188c-1.432,0.61-2.363,0.948-2.363,0.948s0.803-0.44,2.363-0.948
			c4.439-1.894,13.719-6.427,15.158-11.771c5.82-21.635-8.4-27.36-8.4-27.36s7.133,24.527-14.16,19.2
			c-13.398-3.352,0.303-21.899-19.92-31.68c-15.095-7.3-41.22,10.144-49.066,15.813C260.08,119.35,259.2,120,259.2,120
			s0.83-0.649,2.295-1.708c3.135-2.344,8.9-6.696,13.574-10.449c16.603-13.333,11.006-23.791,13.944-37.474
			c2.822-13.143,2.551-19.397-2.453-19.489c-5.004-0.092-7.347,6.084-10.56,11.04c-3.213,4.956-23.383,15.115-36.409,23.467
			c-12.462,7.991-9.688,32.901-9.671,33.652c0,0-3.125-2.939-6.721-6.96c-3.595-4.02-20.362-5.485-26.879-7.2
			c-13.923-3.662-24.24-11.76-24.24-11.76s-1.202,13.933,5.52,20.4c10.246,9.858,19.986,10.228,24.305,9.771
			c1.489-0.298,2.335-0.412,2.335-0.412s-0.848,0.254-2.335,0.412c-2.72,0.545-7.595,1.714-13.42,3.947L0,0
			c0,0,124.512,116.656,161.113,153.636c-13.577,17.073-29.761,39.574-42.553,57.083c-22.599,30.933-29.578,47.624-31.68,69.84
			c-2.102,22.216,21.89,21.198,37.68,24.479c3.305,0.687,6.07,0.386,8.539-0.617c1.234,3.886,1.671,8.989-3.019,11.657
			c-8.68,4.938-15.6-6.479-15.6-6.479s-4.025,5.123,0,12.239c4.741,8.383,16.32,7.681,16.32,7.681s-9.674,1.048-13.2,17.279
			c-2.916,13.422,2.678,26.944,13.92,29.761c16.99,4.256,17.52-11.04,17.52-11.04s-10.042,3.547-13.68-9.36
			c-3.639-12.907,7.733-20.511,20.64-25.68c17.837-7.145,7.2-27.36,7.2-27.36s-7.822,15.3-18.225,7.806
			c-4.197-3.023-3.884-9.135-2.777-13.989c4.999-5.899,10.12-13.784,18.602-19.977c16.883-12.324,47.401-16.587,68.16-20.16
			c20.758-3.572,29.136-6.137,36-24.959c6.864-18.823,1.439-38.4,1.439-38.4l5.521,0.96c-0.243,0.058,7.901,40.017-12.166,55.872
			c-26.037,20.573-67.648,66.579-82.154,117.168c-16.016,55.855-13.44,109.679-13.44,109.679s35.051-47.555,60.24-56.879
			c40.471-14.982,64.648,1.459,86.879-4.561c22.232-6.02,19.029-30.073,39.121-31.919c20.092-1.848,10.561,24,10.561,24
			s17.26,23.568,36,22.08c30.566-2.43,34.559-30.48,34.559-30.48S411.266,419.188,392.641,397.92z"/>
	</g>
	<g display="inline">
		<path fill="none" stroke="#000000" stroke-miterlimit="10" d="M392.641,397.92c-10.713-12.233,14.16-31.68,14.16-31.68
			s11.061-10.137,8.16-28.56c-2.732-17.345-13.08-22.025-14.283-22.515c-0.07-0.026-0.117-0.046-0.117-0.046
			s0.043,0.016,0.117,0.046c1.492,0.579,18.385,6.762,25.082-7.246c11.857-24.798-8.639-49.439-8.639-49.439
			s1.908,15.138-3.641,23.826c-8.346,13.071-19.594,7.308-18.92,6.174c0,0,16.828-7.576,12.959-24.48
			c-3.867-16.904-21.359-28.32-21.359-28.32s18.684,5.436,24.721-4.08c10.047-15.838-7.201-34.08-7.201-34.08
			s-0.451,19.213-14.16,17.52c-13.707-1.693-14.16-16.32-14.16-16.32s-2.834-6.337,0.721-16.08
			c3.557-9.743,2.564-23.12-11.039-27.36c-13.828-4.309-23.086-2.515-27.158-1.188c-1.432,0.61-2.363,0.948-2.363,0.948
			s0.803-0.44,2.363-0.948c4.439-1.894,13.719-6.427,15.158-11.771c5.82-21.635-8.4-27.36-8.4-27.36s7.133,24.527-14.16,19.2
			c-13.398-3.352,0.303-21.899-19.92-31.68c-15.095-7.3-41.22,10.144-49.066,15.813C260.08,119.35,259.2,120,259.2,120
			s0.83-0.649,2.295-1.708c3.135-2.344,8.9-6.696,13.574-10.449c16.603-13.333,11.006-23.791,13.944-37.474
			c2.822-13.143,2.551-19.397-2.453-19.489c-5.004-0.092-7.347,6.084-10.56,11.04c-3.213,4.956-23.383,15.115-36.409,23.467
			c-12.462,7.991-9.688,32.901-9.671,33.652c0,0-3.125-2.939-6.721-6.96c-3.595-4.02-20.362-5.485-26.879-7.2
			c-13.923-3.662-24.24-11.76-24.24-11.76s-1.202,13.933,5.52,20.4c10.246,9.858,19.986,10.228,24.305,9.771
			c1.489-0.298,2.335-0.412,2.335-0.412s-0.848,0.254-2.335,0.412c-2.72,0.545-7.595,1.714-13.42,3.947L0,0
			c0,0,124.512,116.656,161.113,153.636c-13.577,17.073-29.761,39.574-42.553,57.083c-22.599,30.933-29.578,47.624-31.68,69.84
			c-2.102,22.216,21.89,21.198,37.68,24.479c3.305,0.687,6.07,0.386,8.539-0.617c1.234,3.886,1.671,8.989-3.019,11.657
			c-8.68,4.938-15.6-6.479-15.6-6.479s-4.025,5.123,0,12.239c4.741,8.383,16.32,7.681,16.32,7.681s-9.674,1.048-13.2,17.279
			c-2.916,13.422,2.678,26.944,13.92,29.761c16.99,4.256,17.52-11.04,17.52-11.04s-10.042,3.547-13.68-9.36
			c-3.639-12.907,7.733-20.511,20.64-25.68c17.837-7.145,7.2-27.36,7.2-27.36s-7.822,15.3-18.225,7.806
			c-4.197-3.023-3.884-9.135-2.777-13.989c4.999-5.899,10.12-13.784,18.602-19.977c16.883-12.324,47.401-16.587,68.16-20.16
			c20.758-3.572,29.136-6.137,36-24.959c6.864-18.823,1.439-38.4,1.439-38.4l5.521,0.96c-0.243,0.058,7.901,40.017-12.166,55.872
			c-26.037,20.573-67.648,66.579-82.154,117.168c-16.016,55.855-13.44,109.679-13.44,109.679s35.051-47.555,60.24-56.879
			c40.471-14.982,64.648,1.459,86.879-4.561c22.232-6.02,19.029-30.073,39.121-31.919c20.092-1.848,10.561,24,10.561,24
			s17.26,23.568,36,22.08c30.566-2.43,34.559-30.48,34.559-30.48S411.266,419.188,392.641,397.92z"/>
	</g>
</g>
<g id="Deer" display="none">
	<g display="inline">
		<path fill="#FFFFFF" d="M445.58,47.52C442.809,26.577,458.061,0,458.061,0s-30.969,15.462-31.199,45.6
			c-0.189,24.595,17.527,32.714,9.6,64.08c-4.939,19.539-26.881,25.2-26.881,25.2s-22.227-4.364-38.4-19.2
			c-16.908-15.511-13.199-39.84-13.199-39.84s-11.977,22.89-7.439,36.96c7.225,22.411,26.074,30.685,26.16,30.72
			c0,0-17.383,3.528-39.258,13.177c-20.92,9.226-33.362,29.575-33.223,29.543c0,0-8.358-5.833-9.84-18.72
			c-2.23-19.404,8.88-36,8.88-36s-24.424,12.777-27.6,39.12c-3.523,29.228,1.088,39.327,1.088,39.327l34.078,23.516
			c0,0,7.871-5.724,17.242-20.448c14.26-22.403,25.76-30.309,54.633-36.155c32.729-6.628,63.377-19.041,79.832-53.616
			C481.297,83.839,448.357,68.503,445.58,47.52z M429.346,199.409c-12.561-9.74-66.244-3.794-86.801,18.957
			c-13.328,14.751-6.57,26.279-17.145,36.234c-10.574,9.956-16.932-1.439-16.932-1.439l-0.857-13.678l-34.078-25.436
			c0,0-9.965,7.093-22.719,10.798c-7.064,2.052-12.882,3.018-16.674,3.473c-3.793-0.455-9.611-1.42-16.675-3.473
			c-12.754-3.705-22.718-10.798-22.718-10.798l-34.077,25.436l-0.857,13.678c0,0-6.357,11.396-16.931,1.439
			c-10.574-9.955-3.818-21.482-17.146-36.234c-20.556-22.751-74.239-28.696-86.8-18.957c-12.562,9.739,17.201,35.886,40.721,57.59
			c22.986,21.213,38.871,15.249,49.508,14.158c10.638-1.092,22.695-4.18,24.861,5.999c2.167,10.178-7.917,34.559,3.858,57.351
			c12.509,24.214,16.31,23.547,22.084,49.691c10.613,48.058-0.285,37.199,17.61,60.859c7.848,10.377,21.936,13.143,31.522,13.783
			v0.041c0.02-0.037,1.963,0.137,5.04,0.131c3.077,0.006,5.019-0.168,5.04-0.131v-0.041c9.587-0.641,23.675-3.406,31.523-13.783
			c17.894-23.66,6.996-12.801,17.609-60.859c5.774-26.145,9.575-25.478,22.083-49.691c11.775-22.792,1.691-47.173,3.857-57.351
			c2.166-10.179,14.225-7.091,24.861-5.999c10.639,1.091,26.523,7.055,49.51-14.158
			C412.145,235.294,441.906,209.148,429.346,199.409z M140.213,213.035c9.372,14.724,17.243,20.448,17.243,20.448l34.077-23.516
			c0,0,4.611-10.099,1.088-39.327c-3.176-26.343-27.6-39.12-27.6-39.12s11.111,16.596,8.88,36c-1.482,12.887-9.84,18.72-9.84,18.72
			c0.14,0.032-12.303-20.317-33.222-29.543c-21.875-9.649-39.258-13.177-39.258-13.177c0.086-0.035,18.935-8.309,26.16-30.72
			c4.536-14.071-7.44-36.96-7.44-36.96s3.708,24.33-13.2,39.84c-16.173,14.836-38.4,19.2-38.4,19.2s-21.941-5.661-26.88-25.2
			c-7.928-31.366,9.789-39.485,9.6-64.08C41.189,15.462,10.221,0,10.221,0s15.252,26.577,12.48,47.52
			c-2.777,20.983-35.715,36.319-16.952,75.744c16.455,34.575,47.103,46.988,79.832,53.616
			C114.453,182.727,125.954,190.632,140.213,213.035z"/>
	</g>
	<g display="inline">
		<path fill="none" stroke="#000000" stroke-miterlimit="10" d="M445.58,47.52C442.809,26.577,458.061,0,458.061,0
			s-30.969,15.462-31.199,45.6c-0.189,24.595,17.527,32.714,9.6,64.08c-4.939,19.539-26.881,25.2-26.881,25.2
			s-22.227-4.364-38.4-19.2c-16.908-15.511-13.199-39.84-13.199-39.84s-11.977,22.89-7.439,36.96
			c7.225,22.411,26.074,30.685,26.16,30.72c0,0-17.383,3.528-39.258,13.177c-20.92,9.226-33.362,29.575-33.223,29.543
			c0,0-8.358-5.833-9.84-18.72c-2.23-19.404,8.88-36,8.88-36s-24.424,12.777-27.6,39.12c-3.523,29.228,1.088,39.327,1.088,39.327
			l34.078,23.516c0,0,7.871-5.724,17.242-20.448c14.26-22.403,25.76-30.309,54.633-36.155c32.729-6.628,63.377-19.041,79.832-53.616
			C481.297,83.839,448.357,68.503,445.58,47.52z M429.346,199.409c-12.561-9.74-66.244-3.794-86.801,18.957
			c-13.328,14.751-6.57,26.279-17.145,36.234c-10.574,9.956-16.932-1.439-16.932-1.439l-0.857-13.678l-34.078-25.436
			c0,0-9.965,7.093-22.719,10.798c-7.064,2.052-12.882,3.018-16.674,3.473c-3.793-0.455-9.611-1.42-16.675-3.473
			c-12.754-3.705-22.718-10.798-22.718-10.798l-34.077,25.436l-0.857,13.678c0,0-6.357,11.396-16.931,1.439
			c-10.574-9.955-3.818-21.482-17.146-36.234c-20.556-22.751-74.239-28.696-86.8-18.957c-12.562,9.739,17.201,35.886,40.721,57.59
			c22.986,21.213,38.871,15.249,49.508,14.158c10.638-1.092,22.695-4.18,24.861,5.999c2.167,10.178-7.917,34.559,3.858,57.351
			c12.509,24.214,16.31,23.547,22.084,49.691c10.613,48.058-0.285,37.199,17.61,60.859c7.848,10.377,21.936,13.143,31.522,13.783
			v0.041c0.02-0.037,1.963,0.137,5.04,0.131c3.077,0.006,5.019-0.168,5.04-0.131v-0.041c9.587-0.641,23.675-3.406,31.523-13.783
			c17.894-23.66,6.996-12.801,17.609-60.859c5.774-26.145,9.575-25.478,22.083-49.691c11.775-22.792,1.691-47.173,3.857-57.351
			c2.166-10.179,14.225-7.091,24.861-5.999c10.639,1.091,26.523,7.055,49.51-14.158
			C412.145,235.294,441.906,209.148,429.346,199.409z M140.213,213.035c9.372,14.724,17.243,20.448,17.243,20.448l34.077-23.516
			c0,0,4.611-10.099,1.088-39.327c-3.176-26.343-27.6-39.12-27.6-39.12s11.111,16.596,8.88,36c-1.482,12.887-9.84,18.72-9.84,18.72
			c0.14,0.032-12.303-20.317-33.222-29.543c-21.875-9.649-39.258-13.177-39.258-13.177c0.086-0.035,18.935-8.309,26.16-30.72
			c4.536-14.071-7.44-36.96-7.44-36.96s3.708,24.33-13.2,39.84c-16.173,14.836-38.4,19.2-38.4,19.2s-21.941-5.661-26.88-25.2
			c-7.928-31.366,9.789-39.485,9.6-64.08C41.189,15.462,10.221,0,10.221,0s15.252,26.577,12.48,47.52
			c-2.777,20.983-35.715,36.319-16.952,75.744c16.455,34.575,47.103,46.988,79.832,53.616
			C114.453,182.727,125.954,190.632,140.213,213.035z"/>
	</g>
</g>
<g id="Fluer" display="none">
	<g display="inline">
		<path fill="#FFFFFF" d="M436.131,130.289c0,0-13.479,16.53-25.141,2.52c-9.859-11.846-23.432-32.98-60.515-28.634
			c-37.888,4.441-85.696,24.352-97.028,100.875c-2.183,14.741-3.458,29.883-3.812,44.897h-15.309
			c0.925-136.842,60.307-177.234,60.307-177.234L219.213,0l-75.421,72.714c0,0,59.382,40.392,60.306,177.234H188.79
			c-0.354-15.015-1.628-30.157-3.812-44.897c-11.332-76.523-59.141-96.434-97.029-100.875
			c-37.083-4.347-50.655,16.788-60.515,28.634c-11.661,14.01-25.14-2.52-25.14-2.52s-1.895,47.462,19.133,59.558
			s46.721-8.934,46.721-8.934s-6.674,7.771-5.339,13.057c2.592,10.27,10.901,8.247,10.901,8.247s16.75-26.071,36.709-21.532
			c18.534,4.215,54.985,23.526,62.631,69.264h-17.178c-3.977,0-7.2,3.224-7.2,7.2v2.285c0,3.977,3.224,7.2,7.2,7.2h18.481
			c-1.52,37.091-39.539,61.001-65.269,70.503c-28.373,10.479-50.058-3.894-50.058-3.894s15.05,100.861,83.875,59.786
			c29.706-17.729,44.608-69.694,45.899-126.396h15.093c-2.992,89.057-34.739,143.347-34.739,143.347l50.058,51.539l50.058-51.539
			c0,0-31.747-54.291-34.739-143.347h15.093c1.291,56.701,16.193,108.667,45.899,126.396c68.825,41.075,83.875-59.786,83.875-59.786
			s-21.685,14.372-50.058,3.894c-25.73-9.502-63.75-33.412-65.27-70.503h20.484c3.976,0,7.199-3.224,7.199-7.2v-2.285
			c0-3.977-3.224-7.2-7.199-7.2h-19.182c7.647-45.738,44.098-65.049,62.632-69.264c19.959-4.539,36.709,21.532,36.709,21.532
			s8.309,2.023,10.901-8.247c1.335-5.286-5.34-13.057-5.34-13.057s25.692,21.029,46.722,8.934
			C438.026,177.751,436.131,130.289,436.131,130.289z"/>
	</g>
	<g display="inline">
		<path fill="none" stroke="#000000" stroke-miterlimit="10" d="M436.131,130.289c0,0-13.479,16.53-25.141,2.52
			c-9.859-11.846-23.432-32.98-60.515-28.634c-37.888,4.441-85.696,24.352-97.028,100.875c-2.183,14.741-3.458,29.883-3.812,44.897
			h-15.309c0.925-136.842,60.307-177.234,60.307-177.234L219.213,0l-75.421,72.714c0,0,59.382,40.392,60.306,177.234H188.79
			c-0.354-15.015-1.628-30.157-3.812-44.897c-11.332-76.523-59.141-96.434-97.029-100.875
			c-37.083-4.347-50.655,16.788-60.515,28.634c-11.661,14.01-25.14-2.52-25.14-2.52s-1.895,47.462,19.133,59.558
			s46.721-8.934,46.721-8.934s-6.674,7.771-5.339,13.057c2.592,10.27,10.901,8.247,10.901,8.247s16.75-26.071,36.709-21.532
			c18.534,4.215,54.985,23.526,62.631,69.264h-17.178c-3.977,0-7.2,3.224-7.2,7.2v2.285c0,3.977,3.224,7.2,7.2,7.2h18.481
			c-1.52,37.091-39.539,61.001-65.269,70.503c-28.373,10.479-50.058-3.894-50.058-3.894s15.05,100.861,83.875,59.786
			c29.706-17.729,44.608-69.694,45.899-126.396h15.093c-2.992,89.057-34.739,143.347-34.739,143.347l50.058,51.539l50.058-51.539
			c0,0-31.747-54.291-34.739-143.347h15.093c1.291,56.701,16.193,108.667,45.899,126.396c68.825,41.075,83.875-59.786,83.875-59.786
			s-21.685,14.372-50.058,3.894c-25.73-9.502-63.75-33.412-65.27-70.503h20.484c3.976,0,7.199-3.224,7.199-7.2v-2.285
			c0-3.977-3.224-7.2-7.199-7.2h-19.182c7.647-45.738,44.098-65.049,62.632-69.264c19.959-4.539,36.709,21.532,36.709,21.532
			s8.309,2.023,10.901-8.247c1.335-5.286-5.34-13.057-5.34-13.057s25.692,21.029,46.722,8.934
			C438.026,177.751,436.131,130.289,436.131,130.289z"/>
	</g>
</g>
<g id="theCrown" display="none">
	<g display="inline">
		<path fill="#FFFFFF" d="M480.7,242.395c0-17.657-14.311-31.972-31.964-31.972c-3.711,0-7.271,0.64-10.584,1.803
			c-0.024-0.05-0.049-0.1-0.073-0.15c7.25-5.861,11.891-14.824,11.891-24.875c0-17.658-14.311-31.972-31.963-31.972
			c-8.414,0-16.064,3.257-21.772,8.573c-0.183-0.115-0.359-0.243-0.543-0.356c0.438-2.109,0.67-4.294,0.67-6.534
			c0-17.658-14.311-31.972-31.964-31.972c-16.962,0-30.83,13.218-31.891,29.917c-6.979,2.125-14.118,5.269-21.382,9.572
			c-15.597,9.238-29.193,24.689-40.438,41.292l-8.446-101.273l55.575,14.556c3.14,0,5.685-2.548,5.685-5.691V51.463
			c0-3.144-2.545-5.692-5.685-5.692L265.439,59.49l13.724-52.466c0-3.14-2.545-5.685-5.685-5.685H211.71
			c-3.139,0-5.684,2.545-5.684,5.685l13.711,52.417l-52.554-13.765c-3.139,0-5.684,2.548-5.684,5.691v61.849
			c0,3.144,2.545,5.691,5.684,5.691l55.583-14.558l-8.695,104.252c-11.605-17.684-25.863-34.404-42.357-44.174
			c-7.263-4.302-14.403-7.446-21.38-9.572c-1.061-16.699-14.93-29.917-31.893-29.917c-17.654,0-31.965,14.314-31.965,31.973
			c0,2.24,0.232,4.424,0.67,6.534c-0.184,0.114-0.361,0.242-0.543,0.357c-5.708-5.315-13.358-8.571-21.772-8.571
			c-17.654,0-31.965,14.313-31.965,31.969c0,10.051,4.642,19.013,11.893,24.874c-0.025,0.05-0.049,0.101-0.074,0.151
			c-3.313-1.163-6.872-1.802-10.582-1.802c-17.654,0-31.965,14.315-31.965,31.973c0,16.602,12.65,30.245,28.835,31.818
			c-3.362,76.905,19.391,185.7,19.391,185.7l0.348-0.496c0,0.128-0.005,0.256-0.005,0.384h381.314c0-0.182-0.007-0.361-0.008-0.543
			l0.46,0.655c0,0,22.753-108.798,19.39-185.704C468.049,272.639,480.7,258.997,480.7,242.395z M87.262,347.737
			c-8.445-35.615-17.166-84.195-9.307-108.82c13.834-43.35,48.551-58.432,85.685-39.937c22.785,11.348,35.309,56.424,39.447,74.21
			C155.727,282.846,114.756,310.055,87.262,347.737z M242.14,95.9c-7.555,0-13.68-6.125-13.68-13.68
			c0-7.556,6.125-13.68,13.68-13.68c7.556,0,13.681,6.125,13.681,13.68C255.82,89.775,249.695,95.9,242.14,95.9z M395.551,347.851
			c-27.513-37.772-68.551-65.055-116.002-74.704c4.21-17.816,16.886-62.828,39.651-74.167c37.134-18.495,71.851-3.413,85.685,39.937
			C412.752,263.568,404.005,312.225,395.551,347.851z"/>
	</g>
	<g display="inline">
		<path fill="none" stroke="#000000" stroke-miterlimit="10" d="M480.7,242.395c0-17.657-14.311-31.972-31.964-31.972
			c-3.711,0-7.271,0.64-10.584,1.803c-0.024-0.05-0.049-0.1-0.073-0.15c7.25-5.861,11.891-14.824,11.891-24.875
			c0-17.658-14.311-31.972-31.963-31.972c-8.414,0-16.064,3.257-21.772,8.573c-0.183-0.115-0.359-0.243-0.543-0.356
			c0.438-2.109,0.67-4.294,0.67-6.534c0-17.658-14.311-31.972-31.964-31.972c-16.962,0-30.83,13.218-31.891,29.917
			c-6.979,2.125-14.118,5.269-21.382,9.572c-15.597,9.238-29.193,24.689-40.438,41.292l-8.446-101.273l55.575,14.556
			c3.14,0,5.685-2.548,5.685-5.691V51.463c0-3.144-2.545-5.692-5.685-5.692L265.439,59.49l13.724-52.466
			c0-3.14-2.545-5.685-5.685-5.685H211.71c-3.139,0-5.684,2.545-5.684,5.685l13.711,52.417l-52.554-13.765
			c-3.139,0-5.684,2.548-5.684,5.691v61.849c0,3.144,2.545,5.691,5.684,5.691l55.583-14.558l-8.695,104.252
			c-11.605-17.684-25.863-34.404-42.357-44.174c-7.263-4.302-14.403-7.446-21.38-9.572c-1.061-16.699-14.93-29.917-31.893-29.917
			c-17.654,0-31.965,14.314-31.965,31.973c0,2.24,0.232,4.424,0.67,6.534c-0.184,0.114-0.361,0.242-0.543,0.357
			c-5.708-5.315-13.358-8.571-21.772-8.571c-17.654,0-31.965,14.313-31.965,31.969c0,10.051,4.642,19.013,11.893,24.874
			c-0.025,0.05-0.049,0.101-0.074,0.151c-3.313-1.163-6.872-1.802-10.582-1.802c-17.654,0-31.965,14.315-31.965,31.973
			c0,16.602,12.65,30.245,28.835,31.818c-3.362,76.905,19.391,185.7,19.391,185.7l0.348-0.496c0,0.128-0.005,0.256-0.005,0.384
			h381.314c0-0.182-0.007-0.361-0.008-0.543l0.46,0.655c0,0,22.753-108.798,19.39-185.704
			C468.049,272.639,480.7,258.997,480.7,242.395z M87.262,347.737c-8.445-35.615-17.166-84.195-9.307-108.82
			c13.834-43.35,48.551-58.432,85.685-39.937c22.785,11.348,35.309,56.424,39.447,74.21
			C155.727,282.846,114.756,310.055,87.262,347.737z M242.14,95.9c-7.555,0-13.68-6.125-13.68-13.68
			c0-7.556,6.125-13.68,13.68-13.68c7.556,0,13.681,6.125,13.681,13.68C255.82,89.775,249.695,95.9,242.14,95.9z M395.551,347.851
			c-27.513-37.772-68.551-65.055-116.002-74.704c4.21-17.816,16.886-62.828,39.651-74.167c37.134-18.495,71.851-3.413,85.685,39.937
			C412.752,263.568,404.005,312.225,395.551,347.851z"/>
	</g>
</g>
<g id="Shield" display="none">
	<g display="inline">
		<path fill="#FFFFFF" d="M339.356,51.22c0,0-8.882,50.59-88.137,37.92c-48.736-7.792-75.332-73.698-79.921-86.078L171.3,1.06
			c0,0-0.123,0.361-0.36,1.021c-0.237-0.659-0.36-1.021-0.36-1.021l0.001,2.002c-4.589,12.38-31.184,78.287-79.921,86.078
			C11.405,101.81,2.523,51.22,2.523,51.22S-3.495,284.067,20.659,331.06C59.728,407.07,165.32,464.308,170.82,467.252v0.128
			c0,0,0.048-0.025,0.12-0.063c0.072,0.038,0.12,0.063,0.12,0.063v-0.128c5.5-2.944,111.092-60.182,150.161-136.192
			C345.375,284.067,339.356,51.22,339.356,51.22z M35.752,116.743c0,0,24.035,18.57,70.685,11.149
			c39.039-6.209,60.409-41.417,64.095-48.008l0-1.064c0,0,0.096,0.195,0.283,0.552c0.194-0.357,0.294-0.552,0.294-0.552l0,1.104
			c3.671,6.802,24.901,42.936,64.095,47.969c12.989,1.668,24.48,1.356,34.237,0.104L60.167,337.271
			c-3.669-5.012-6.996-10.163-9.87-15.435C30.926,286.308,35.752,116.743,35.752,116.743z M291.344,321.836
			C260.01,379.304,175.323,422.58,170.916,424.804v0.097c0,0-0.038-0.02-0.096-0.048c-0.058,0.028-0.096,0.048-0.096,0.048v-0.097
			c-3.143-1.586-47.1-24.048-83.429-57.64l219.079-219.079C306.727,198.834,305.463,295.939,291.344,321.836z"/>
	</g>
	<g display="inline">
		<path fill="none" stroke="#000000" stroke-miterlimit="10" d="M339.356,51.22c0,0-8.882,50.59-88.137,37.92
			c-48.736-7.792-75.332-73.698-79.921-86.078L171.3,1.06c0,0-0.123,0.361-0.36,1.021c-0.237-0.659-0.36-1.021-0.36-1.021
			l0.001,2.002c-4.589,12.38-31.184,78.287-79.921,86.078C11.405,101.81,2.523,51.22,2.523,51.22S-3.495,284.067,20.659,331.06
			C59.728,407.07,165.32,464.308,170.82,467.252v0.128c0,0,0.048-0.025,0.12-0.063c0.072,0.038,0.12,0.063,0.12,0.063v-0.128
			c5.5-2.944,111.092-60.182,150.161-136.192C345.375,284.067,339.356,51.22,339.356,51.22z M35.752,116.743
			c0,0,24.035,18.57,70.685,11.149c39.039-6.209,60.409-41.417,64.095-48.008l0-1.064c0,0,0.096,0.195,0.283,0.552
			c0.194-0.357,0.294-0.552,0.294-0.552l0,1.104c3.671,6.802,24.901,42.936,64.095,47.969c12.989,1.668,24.48,1.356,34.237,0.104
			L60.167,337.271c-3.669-5.012-6.996-10.163-9.87-15.435C30.926,286.308,35.752,116.743,35.752,116.743z M291.344,321.836
			C260.01,379.304,175.323,422.58,170.916,424.804v0.097c0,0-0.038-0.02-0.096-0.048c-0.058,0.028-0.096,0.048-0.096,0.048v-0.097
			c-3.143-1.586-47.1-24.048-83.429-57.64l219.079-219.079C306.727,198.834,305.463,295.939,291.344,321.836z"/>
	</g>
</g>
<g id="Sun" display="none">
	<g display="inline">
		<path fill="#FFFFFF" d="M371.668,277.752c-25.854-10.294-41.554-10.174-59.552-18.418c1.857-0.699,3.717-1.461,5.577-2.31
			c33.828-15.424,44.951-31.738,66.887-37.703c37.463-10.188,75.328,13.168,75.193,13.188c0,0-23.82-39.953-83.52-31.244
			c-27.623,4.03-41.158,12.033-60.967,13.862c1.343-1.621,2.652-3.307,3.914-5.075c21.596-30.253,23.084-49.923,39.102-66.05
			c27.355-27.541,71.811-26.275,71.703-26.191c0,0-40.576-22.641-87.93,14.74c-21.904,17.291-29.632,30.976-45.862,42.46
			c0.342-2.032,0.62-4.105,0.825-6.221c3.575-36.997-4.972-54.776,0.837-76.751c9.921-37.53,49.052-58.661,49.003-58.534
			c0,0-46.462,0.681-68.781,56.73c-10.323,25.926-10.174,41.642-18.487,59.702c-0.72-1.931-1.517-3.865-2.397-5.799
			c-15.402-33.828-31.693-44.952-37.65-66.887c-10.173-37.462,13.15-75.327,13.17-75.193c0,0-39.897,23.821-31.2,83.52
			c4.022,27.612,12.009,41.147,13.84,60.943c-1.584-1.308-3.236-2.582-4.959-3.813c-30.237-21.607-49.891-23.106-66.012-39.13
			c-27.532-27.366-26.294-71.809-26.209-71.702c0,0-22.597,40.554,14.778,87.918c17.299,21.923,30.983,29.653,42.472,45.909
			c-2.054-0.348-4.15-0.632-6.29-0.84c-36.99-3.593-54.76,4.935-76.733-0.881c-37.527-9.934-58.675-49.042-58.549-48.992
			c0,0,0.708,46.419,56.757,68.75c25.977,10.35,41.699,10.188,59.805,18.554c-2,0.741-4.003,1.556-6.007,2.468
			c-33.831,15.405-44.956,31.698-66.894,37.656c-37.466,10.175-75.335-13.152-75.201-13.172c0,0,23.823,39.902,83.528,31.204
			c27.614-4.022,41.15-12.01,60.947-13.842c-1.286,1.561-2.541,3.184-3.753,4.88c-21.607,30.237-23.106,49.892-39.13,66.012
			c-27.366,27.532-71.809,26.294-71.702,26.209c0,0,40.555,22.597,87.918-14.778c21.922-17.298,29.652-30.982,45.907-42.47
			c-0.348,2.053-0.63,4.149-0.838,6.288c-3.594,36.989,4.935,54.76-0.882,76.732c-9.934,37.526-49.042,58.676-48.992,58.549
			c0,0,46.419-0.708,68.75-56.757c10.336-25.943,10.188-41.659,18.521-59.735c0.726,1.953,1.529,3.909,2.418,5.866
			c15.383,33.831,31.653,44.956,37.603,66.894c10.16,37.466-13.133,75.335-13.153,75.2c0,0,39.847-23.823,31.16-83.528
			c-4.02-27.636-12.006-41.172-13.827-60.995c1.61,1.331,3.289,2.627,5.043,3.88c30.253,21.595,49.924,23.083,66.049,39.101
			c27.541,27.357,26.275,71.811,26.191,71.705c0,0,22.641-40.578-14.74-87.931c-17.293-21.905-30.978-29.632-42.463-45.866
			c2.034,0.342,4.107,0.623,6.224,0.828c36.997,3.575,54.776-4.972,76.75,0.838c37.531,9.921,58.662,49.052,58.535,49.002
			C428.398,346.532,427.717,300.07,371.668,277.752z M231.054,283.099c-28.763,0-52.08-23.316-52.08-52.08
			c0-28.763,23.317-52.08,52.08-52.08s52.08,23.317,52.08,52.08C283.133,259.782,259.817,283.099,231.054,283.099z"/>
	</g>
	<g display="inline">
		<path fill="none" stroke="#000000" stroke-miterlimit="10" d="M371.668,277.752c-25.854-10.294-41.554-10.174-59.552-18.418
			c1.857-0.699,3.717-1.461,5.577-2.31c33.828-15.424,44.951-31.738,66.887-37.703c37.463-10.188,75.328,13.168,75.193,13.188
			c0,0-23.82-39.953-83.52-31.244c-27.623,4.03-41.158,12.033-60.967,13.862c1.343-1.621,2.652-3.307,3.914-5.075
			c21.596-30.253,23.084-49.923,39.102-66.05c27.355-27.541,71.811-26.275,71.703-26.191c0,0-40.576-22.641-87.93,14.74
			c-21.904,17.291-29.632,30.976-45.862,42.46c0.342-2.032,0.62-4.105,0.825-6.221c3.575-36.997-4.972-54.776,0.837-76.751
			c9.921-37.53,49.052-58.661,49.003-58.534c0,0-46.462,0.681-68.781,56.73c-10.323,25.926-10.174,41.642-18.487,59.702
			c-0.72-1.931-1.517-3.865-2.397-5.799c-15.402-33.828-31.693-44.952-37.65-66.887c-10.173-37.462,13.15-75.327,13.17-75.193
			c0,0-39.897,23.821-31.2,83.52c4.022,27.612,12.009,41.147,13.84,60.943c-1.584-1.308-3.236-2.582-4.959-3.813
			c-30.237-21.607-49.891-23.106-66.012-39.13c-27.532-27.366-26.294-71.809-26.209-71.702c0,0-22.597,40.554,14.778,87.918
			c17.299,21.923,30.983,29.653,42.472,45.909c-2.054-0.348-4.15-0.632-6.29-0.84c-36.99-3.593-54.76,4.935-76.733-0.881
			c-37.527-9.934-58.675-49.042-58.549-48.992c0,0,0.708,46.419,56.757,68.75c25.977,10.35,41.699,10.188,59.805,18.554
			c-2,0.741-4.003,1.556-6.007,2.468c-33.831,15.405-44.956,31.698-66.894,37.656c-37.466,10.175-75.335-13.152-75.201-13.172
			c0,0,23.823,39.902,83.528,31.204c27.614-4.022,41.15-12.01,60.947-13.842c-1.286,1.561-2.541,3.184-3.753,4.88
			c-21.607,30.237-23.106,49.892-39.13,66.012c-27.366,27.532-71.809,26.294-71.702,26.209c0,0,40.555,22.597,87.918-14.778
			c21.922-17.298,29.652-30.982,45.907-42.47c-0.348,2.053-0.63,4.149-0.838,6.288c-3.594,36.989,4.935,54.76-0.882,76.732
			c-9.934,37.526-49.042,58.676-48.992,58.549c0,0,46.419-0.708,68.75-56.757c10.336-25.943,10.188-41.659,18.521-59.735
			c0.726,1.953,1.529,3.909,2.418,5.866c15.383,33.831,31.653,44.956,37.603,66.894c10.16,37.466-13.133,75.335-13.153,75.2
			c0,0,39.847-23.823,31.16-83.528c-4.02-27.636-12.006-41.172-13.827-60.995c1.61,1.331,3.289,2.627,5.043,3.88
			c30.253,21.595,49.924,23.083,66.049,39.101c27.541,27.357,26.275,71.811,26.191,71.705c0,0,22.641-40.578-14.74-87.931
			c-17.293-21.905-30.978-29.632-42.463-45.866c2.034,0.342,4.107,0.623,6.224,0.828c36.997,3.575,54.776-4.972,76.75,0.838
			c37.531,9.921,58.662,49.052,58.535,49.002C428.398,346.532,427.717,300.07,371.668,277.752z M231.054,283.099
			c-28.763,0-52.08-23.316-52.08-52.08c0-28.763,23.317-52.08,52.08-52.08s52.08,23.317,52.08,52.08
			C283.133,259.782,259.817,283.099,231.054,283.099z"/>
	</g>
</g>
<g id="eagle" display="none">
	<g display="inline">
		<path fill="#FFFFFF" d="M343.625,56.775c9.268-4.291,76.067-18.602,94.041-26.877S451.52,1.582,451.52,1.582
			s-39.421,9.22-73.014,16.953c-16.249,3.741-70.417,18.879-76.439,50.72c-9.657,51.059,6.869,129.494-13.054,128.866
			c-12.409-0.391-8.162-19.278-14.558-35.429c-0.286-4.467-0.774-9.89-1.568-13.029c-1.508-5.964,11.761,1.2,11.761,1.2
			s3.74-12.661-3.36-17.28c-6.014-3.912-10.08-1.68-10.08-1.68s-0.805-11.241,6.72-11.52c8.011-0.298,6.24,7.2,6.24,7.2
			s3.747-10.27-0.96-16.8c-4.707-6.531-8.16-6.96-8.16-6.96s3.249-3.703,2.88-9.84c-0.441-7.342-4.928-9.818-7.525-10.641
			c-1.126-0.222-1.834-0.399-1.834-0.399s0.755,0.058,1.834,0.399c3.244,0.639,9.987,1.645,13.525-0.159
			c4.769-2.43,0.24-16.32,0.24-16.32s-6.097,4.827-12.96,4.56c-6.863-0.267-21.234-9.82-31.68-12.96
			c-10.446-3.14-25.2,4.32-25.2,4.32s-3.741-3.582-18.24-6.72c-14.499-3.139-25.471-1.533-29.52,4.56
			c-2.45,3.686-2.64,12.48-2.64,12.48s9.273-0.766,22.32,5.28c14.753,6.836,24.423,14.152,30.96,19.44
			c8.523,6.895,0.146,17.811-0.24,17.52c0,0-1.09-6.92-11.52-14.88c-10.43-7.96-33.36-17.04-33.36-17.04s21.87,22.297,24.96,28.8
			c4.721,9.933-4.345,20.464-18.72,23.28c-14.434,2.827-8.16,24.48-8.16,24.48s8.381-8.574,8.16-5.52
			c-0.248,3.427-0.078,7.262,0.184,10.451c-5.304,15.611-2.066,32.834-13.909,33.208c-19.923,0.628-3.397-77.807-13.054-128.866
			c-6.022-31.84-60.19-46.979-76.44-50.72C41.515,10.801,2.095,1.582,2.095,1.582s-4.121,20.042,13.853,28.317
			s84.773,22.586,94.041,26.877s7.459,6.719,7.459,6.719s-23.521-7.297-36.498-9.839c-24.013-4.704-70.064-19.918-70.064-19.918
			S9.695,50.662,24.473,62.535c9.51,7.641,62.078,15.48,74.859,18.718c10.943,2.772,11.189,5.279,11.189,5.279
			s-19.523-3.886-34.899-6.719c-17.574-3.238-53.547-11.279-53.547-11.279s-1.592,20.28,11.988,24.237
			c7.834,2.283,50.089,6.96,60.474,9.119c13.51,2.808,10.124,4.799,10.124,4.799s-12.129-1.441-27.706-3.6
			s-27.439-3.359-27.439-3.359s-0.893,43.641,11.189,54.714c18.71,17.147,48.749,26.139,53.547,50.154
			c4.792,23.979,12.849,64.373,48.729,66.773c14.713,0.984,18.505-1.551,19.358-3.449l0.068-1.862c0,0,0.392,0.838-0.068,1.862
			l-1.372,37.498c0,0-23.575-1.04-30,8.641c-6.425,9.68-3.36,20.399-3.36,20.399l-29.04,25.92c0,0-15.083-26.833-28.32-28.319
			c-13.237-1.487-24.72,11.52-24.72,11.52s20.202-1.144,24.48,5.76c4.278,6.904,9.653,19.991,17.52,25.681
			c7.866,5.688,22.657,13.99,28.32,23.52c8.936,15.039,4.32,24.48,4.32,24.48s18.665-9.531,10.8-24.721
			c-7.865-15.189-23.28-25.2-23.28-25.2l30-22.08c0,0,9.204,13.491,18.48,5.52c4.406-3.785,14.68-10.451,18.738-13.044
			c1.06-1.07,1.7-1.185,1.698-1.078c0,0-0.642,0.403-1.698,1.078c-2.065,2.085-5.73,7.805-9.378,22.645
			c-5.135,20.887-19.792,47.726-18,56.88c2.445,12.494,19.92,31.68,19.92,31.68l26.986-97.441
			c0.159,0.201-20.85,88.617-14.274,99.441c6.91,11.377,24.412,21.135,26.648,22.35v0.129c0,0,0.049-0.026,0.12-0.064
			c0.071,0.038,0.12,0.064,0.12,0.064l0-0.13c2.239-1.216,19.738-10.973,26.648-22.349c6.576-10.824-14.433-99.24-14.274-99.441
			l26.986,97.441c0,0,17.475-19.186,19.92-31.68c1.792-9.154-12.865-35.994-18-56.88c-3.648-14.839-7.313-20.56-9.378-22.645
			c-1.057-0.675-1.698-1.078-1.698-1.078c-0.002-0.106,0.638,0.008,1.698,1.078c4.059,2.593,14.333,9.259,18.738,13.044
			c9.275,7.972,18.479-5.52,18.479-5.52l30,22.08c0,0-15.415,10.011-23.28,25.2c-7.864,15.189,10.801,24.721,10.801,24.721
			s-4.616-9.441,4.319-24.48c5.663-9.53,20.454-17.832,28.32-23.52c7.866-5.689,13.242-18.776,17.52-25.681
			c4.278-6.903,24.48-5.76,24.48-5.76s-11.483-13.007-24.72-11.52c-13.237,1.486-28.32,28.319-28.32,28.319l-29.04-25.92
			c0,0,3.065-10.72-3.36-20.399c-6.425-9.681-30-8.641-30-8.641l-1.371-37.497c-0.46-1.024-0.068-1.862-0.068-1.862l0.068,1.862
			c0.853,1.897,4.645,4.432,19.357,3.448c35.881-2.4,43.698-42.794,48.49-66.773c4.799-24.015,34.837-33.007,53.547-50.154
			c12.081-11.073,11.189-54.714,11.189-54.714s-11.863,1.201-27.44,3.359c-15.576,2.159-27.706,3.6-27.706,3.6
			s-3.386-1.991,10.124-4.799c10.385-2.159,52.64-6.836,60.474-9.119c13.58-3.958,11.988-24.237,11.988-24.237
			s-35.974,8.041-53.548,11.279c-15.376,2.833-34.898,6.719-34.898,6.719s0.246-2.507,11.188-5.279
			c12.781-3.238,65.35-11.077,74.86-18.718c14.777-11.873,13.586-28.797,13.586-28.797s-46.051,15.214-70.064,19.918
			c-12.976,2.542-36.497,9.839-36.497,9.839S334.357,61.066,343.625,56.775z"/>
	</g>
	<g display="inline">
		<path fill="none" stroke="#000000" stroke-miterlimit="10" d="M343.625,56.775c9.268-4.291,76.067-18.602,94.041-26.877
			S451.52,1.582,451.52,1.582s-39.421,9.22-73.014,16.953c-16.249,3.741-70.417,18.879-76.439,50.72
			c-9.657,51.059,6.869,129.494-13.054,128.866c-12.409-0.391-8.162-19.278-14.558-35.429c-0.286-4.467-0.774-9.89-1.568-13.029
			c-1.508-5.964,11.761,1.2,11.761,1.2s3.74-12.661-3.36-17.28c-6.014-3.912-10.08-1.68-10.08-1.68s-0.805-11.241,6.72-11.52
			c8.011-0.298,6.24,7.2,6.24,7.2s3.747-10.27-0.96-16.8c-4.707-6.531-8.16-6.96-8.16-6.96s3.249-3.703,2.88-9.84
			c-0.441-7.342-4.928-9.818-7.525-10.641c-1.126-0.222-1.834-0.399-1.834-0.399s0.755,0.058,1.834,0.399
			c3.244,0.639,9.987,1.645,13.525-0.159c4.769-2.43,0.24-16.32,0.24-16.32s-6.097,4.827-12.96,4.56
			c-6.863-0.267-21.234-9.82-31.68-12.96c-10.446-3.14-25.2,4.32-25.2,4.32s-3.741-3.582-18.24-6.72
			c-14.499-3.139-25.471-1.533-29.52,4.56c-2.45,3.686-2.64,12.48-2.64,12.48s9.273-0.766,22.32,5.28
			c14.753,6.836,24.423,14.152,30.96,19.44c8.523,6.895,0.146,17.811-0.24,17.52c0,0-1.09-6.92-11.52-14.88
			c-10.43-7.96-33.36-17.04-33.36-17.04s21.87,22.297,24.96,28.8c4.721,9.933-4.345,20.464-18.72,23.28
			c-14.434,2.827-8.16,24.48-8.16,24.48s8.381-8.574,8.16-5.52c-0.248,3.427-0.078,7.262,0.184,10.451
			c-5.304,15.611-2.066,32.834-13.909,33.208c-19.923,0.628-3.397-77.807-13.054-128.866c-6.022-31.84-60.19-46.979-76.44-50.72
			C41.515,10.801,2.095,1.582,2.095,1.582s-4.121,20.042,13.853,28.317s84.773,22.586,94.041,26.877s7.459,6.719,7.459,6.719
			s-23.521-7.297-36.498-9.839c-24.013-4.704-70.064-19.918-70.064-19.918S9.695,50.662,24.473,62.535
			c9.51,7.641,62.078,15.48,74.859,18.718c10.943,2.772,11.189,5.279,11.189,5.279s-19.523-3.886-34.899-6.719
			c-17.574-3.238-53.547-11.279-53.547-11.279s-1.592,20.28,11.988,24.237c7.834,2.283,50.089,6.96,60.474,9.119
			c13.51,2.808,10.124,4.799,10.124,4.799s-12.129-1.441-27.706-3.6s-27.439-3.359-27.439-3.359s-0.893,43.641,11.189,54.714
			c18.71,17.147,48.749,26.139,53.547,50.154c4.792,23.979,12.849,64.373,48.729,66.773c14.713,0.984,18.505-1.551,19.358-3.449
			l0.068-1.862c0,0,0.392,0.838-0.068,1.862l-1.372,37.498c0,0-23.575-1.04-30,8.641c-6.425,9.68-3.36,20.399-3.36,20.399
			l-29.04,25.92c0,0-15.083-26.833-28.32-28.319c-13.237-1.487-24.72,11.52-24.72,11.52s20.202-1.144,24.48,5.76
			c4.278,6.904,9.653,19.991,17.52,25.681c7.866,5.688,22.657,13.99,28.32,23.52c8.936,15.039,4.32,24.48,4.32,24.48
			s18.665-9.531,10.8-24.721c-7.865-15.189-23.28-25.2-23.28-25.2l30-22.08c0,0,9.204,13.491,18.48,5.52
			c4.406-3.785,14.68-10.451,18.738-13.044c1.06-1.07,1.7-1.185,1.698-1.078c0,0-0.642,0.403-1.698,1.078
			c-2.065,2.085-5.73,7.805-9.378,22.645c-5.135,20.887-19.792,47.726-18,56.88c2.445,12.494,19.92,31.68,19.92,31.68l26.986-97.441
			c0.159,0.201-20.85,88.617-14.274,99.441c6.91,11.377,24.412,21.135,26.648,22.35v0.129c0,0,0.049-0.026,0.12-0.064
			c0.071,0.038,0.12,0.064,0.12,0.064l0-0.13c2.239-1.216,19.738-10.973,26.648-22.349c6.576-10.824-14.433-99.24-14.274-99.441
			l26.986,97.441c0,0,17.475-19.186,19.92-31.68c1.792-9.154-12.865-35.994-18-56.88c-3.648-14.839-7.313-20.56-9.378-22.645
			c-1.057-0.675-1.698-1.078-1.698-1.078c-0.002-0.106,0.638,0.008,1.698,1.078c4.059,2.593,14.333,9.259,18.738,13.044
			c9.275,7.972,18.479-5.52,18.479-5.52l30,22.08c0,0-15.415,10.011-23.28,25.2c-7.864,15.189,10.801,24.721,10.801,24.721
			s-4.616-9.441,4.319-24.48c5.663-9.53,20.454-17.832,28.32-23.52c7.866-5.689,13.242-18.776,17.52-25.681
			c4.278-6.903,24.48-5.76,24.48-5.76s-11.483-13.007-24.72-11.52c-13.237,1.486-28.32,28.319-28.32,28.319l-29.04-25.92
			c0,0,3.065-10.72-3.36-20.399c-6.425-9.681-30-8.641-30-8.641l-1.371-37.497c-0.46-1.024-0.068-1.862-0.068-1.862l0.068,1.862
			c0.853,1.897,4.645,4.432,19.357,3.448c35.881-2.4,43.698-42.794,48.49-66.773c4.799-24.015,34.837-33.007,53.547-50.154
			c12.081-11.073,11.189-54.714,11.189-54.714s-11.863,1.201-27.44,3.359c-15.576,2.159-27.706,3.6-27.706,3.6
			s-3.386-1.991,10.124-4.799c10.385-2.159,52.64-6.836,60.474-9.119c13.58-3.958,11.988-24.237,11.988-24.237
			s-35.974,8.041-53.548,11.279c-15.376,2.833-34.898,6.719-34.898,6.719s0.246-2.507,11.188-5.279
			c12.781-3.238,65.35-11.077,74.86-18.718c14.777-11.873,13.586-28.797,13.586-28.797s-46.051,15.214-70.064,19.918
			c-12.976,2.542-36.497,9.839-36.497,9.839S334.357,61.066,343.625,56.775z"/>
	</g>
</g>
<g id="Dragon">
	<g>
		<path fill="#FFFFFF" d="M191.807,98.038c1.004,1.053,1.557,1.723,1.557,1.723C193.281,99.082,192.766,98.493,191.807,98.038z
			 M234.561,408.009c47.224,13.303,73.904,10.966,116.225,12.726c12.852,0.115,26.232-0.4,39.091-2.265
			c0.829-14.277-2.253-34.508-2.253-34.508s-13.177,2.743-31.421,1.12c-24.412,4.696-59.258,9.161-95.971,5.189
			c-21.236-2.297-50.86-8.999-81.881-10.92c1.017,2.208,2.859,4.534,5.802,6.952c14.936,12.273,18.086,13.445,18.739,13.297
			l0.165-0.227c0,0,0.043,0.18-0.165,0.227l-0.731,1.008C212.703,402.419,223.396,404.863,234.561,408.009z M54.221,353.764
			l-0.233-0.155C54.043,353.814,54.221,353.764,54.221,353.764z M63.032,420.845c0,0,27.702-18.492,58.343-21.938
			c1.648-0.186,3.265-0.339,4.889-0.5c-4.777-3.127-9.333-7.044-12.956-11.9c-26.215,10.292-54.476,30.604-54.476,30.604
			s3.812-10.817-7.702-14.003c-6.627-1.834-13.769,3.034-13.769,3.034s3.16,6.769,2.333,17.971
			c-0.668,9.068-11.435,22.173-11.435,22.173s14.718-9.514,24.971-8.869c11.063,0.695,15.169,7.235,15.169,7.235
			s8.487-1.215,7.468-14.938C75.095,419.314,63.032,420.845,63.032,420.845z M368.75,112.302c0,0-24.857-13.872-59.276-23.106
			c-32.206-8.64-69.778-8.635-69.778-8.635s30.187,2.464,66.511,33.375c17.923,15.251,36.685,41.475,43.864,51.954
			c-7.799-13.243-7.531-28.585-0.224-39.351C355.173,118.692,359.545,113.929,368.75,112.302z M350.07,165.889
			c0.907,1.54,1.917,3.054,3.044,4.527C353.114,170.416,352.012,168.723,350.07,165.889z M242.495,268.907
			c-0.314,1.246,6.679,0.313,16.57-0.233c9.891-0.546,14.702-4.435,14.702-4.435c4.005-17.335,13.684-31.281,27.305-42.71
			c12.066-10.125,26.813-16.492,42.474-18.438c-0.183-0.211-13.372-24.604-25.204-36.643c-19.308-19.643-36.396-35.54-36.396-35.54
			s17.881,55.842,2.74,94.662C276.024,247.781,242.811,267.661,242.495,268.907z M409.823,24.08c0,0-36.265-9.269-91.015,0.467
			c-38.065,6.769-79.347,32.908-79.347,32.908s40.157-5.091,80.079,5.254c44.998,11.66,68.59,28.178,76.355,34.441
			c-14.507-13.454-19.147-33.044-12.911-48.797C387.699,36.446,398.027,28.02,409.823,24.08z M432.928,265.173
			c-16.988-16.526-58.428-32.444-97.083-23.105c-29.458,7.116-50.411,20.977-55.502,24.566c-0.012,0.058-0.029,0.114-0.041,0.173
			c0,0-6.558,5.932-25.204,7.235c-10.939,0.765-30.687-0.722-30.338-2.101c0.349-1.38,42.454-23.724,52.042-48.312
			c16.759-42.975-3.034-104.793-3.034-104.793s33.734,23.728,43.874,36.176c8.062,9.897,25.38,32.739,35.61,46.295
			c8.909-1.038,15.505-0.7,17.18-0.583c-14.682-19.084-54.832-70.396-75.194-87.723c-40.209-34.218-86.581-34.542-86.581-34.542
			s56.531-6.307,92.416,2.334c34.812,8.382,60.893,20.013,78.508,29.738c16.249-0.855,33.187,5.348,39.178,7.801
			c-17.918-12.465-58.031-37.723-104.15-49.675c-44.191-11.453-90.548-5.135-90.548-5.135s43.702-32.207,85.415-41.777
			c50.887-11.675,87.771-5.761,108.098,0.209c23.396-4.948,50.25,1.172,50.129,1.191c0,0-83.003-37.49-168.735-13.046
			c-74.112,21.131-112.393,74-112.245,73.961c0,0,42.611,1.896,59.51,21.238c39.41,45.11,20.5,120.508-10.269,143.536
			c-33.286,24.911-60.239,22.575-59.276-7.469c0.843-26.302,37.609-35.549,42.007-71.651c3.195-26.229-13.153-57.035-32.905-63.482
			c-12.902-4.211-18.351-4.046-20.647-3.246c-1.055,0.784-1.663,1.337-1.663,1.337s0.142-0.808,1.663-1.337
			c2.253-1.676,6.559-4.417,11.436-5.144c8.038-1.197,12.938-0.895,15.233,0.195c-3.59-3.765-12.952-12.423-23.445-12.824
			c-8.597-0.328-23.695,4.678-23.695,4.678s1.243-4.228,3.871-7.634c4.704-6.099,12.029-7.394,12.029-7.394s-12.981-3-21.216,1.177
			c-8.789,4.458-19.018,10.888-19.018,10.888s-0.794-4.316,1.661-8.338c4.175-6.843,8.589-6.488,8.589-6.488
			s-13.243-2.757-23.443,7.292c-6.151,6.059-11.042,21.93-22.637,20.305c-11.117-1.558-12.991,23.625-21.704,33.142
			c-8.713,9.516-24.652,29.328-24.271,36.642c0.381,7.315,10.346,17.494,13.536,13.77c6.116-7.14,28.364-33.913,47.339-31.85
			c-9.33,5.59-27.366,17.255-35.904,28.583c-9.578,12.707-10.495,20.56-21.282,22.961c-11.843,2.637-20.025-4.99-20.025-4.99
			s7.437,13.886,24.737,10.503c20.269-3.964,19.039-19.219,28.938-29.174c2.256-2.269,6.351-4.351,10.931-6.357
			c-4.779,5.249-9.42,10.043-11.631,12.425c-6.25,6.736,1.005,7.723,8.635,5.602s13.972-17.324,29.171-26.607
			c16.064-9.811,27.762-11.351,35.939,2.801c4.686,8.108-14.063,19.854-43.963,42.704c-22.34,17.073-34.445,39.585-38.406,61.425
			c-19.758,14.162-21.604,44.327-21.604,44.327s-14.929,3.028-21.188-4.031c-6.259-7.061-6.831-16.011-0.959-28.926
			c5.872-12.915,0.33-29.046-6.543-34.067c-6.873-5.021-14.147,2.452-14.147,2.452s10.261,10.839,9.368,17.6
			c-2.41,18.251-8.962,37.361-7.354,42.583c1.609,5.222,3.728,22.249,2.418,24.661c-1.309,2.411,9.477,14.316,8.219,23.721
			c-1.258,9.404-9.916,14.424-9.916,14.424s20.566,11.166,24.623-8.957c2.819-13.986-9.341-33.953-9.341-33.953l33.868,22.498
			c-0.175-0.646,0.866-3.843,12.512-19.271c3.262-4.322,6.571-6.3,9.761-6.747c0.908,1.345,1.865,2.637,2.874,3.866
			c5.824,7.096,14.994,13.44,25.862,18.897c0.643-20.744,6.11-41.303,6.11-41.303l2.819,1.672
			c-2.618,11.614-10.343,50.918,0.082,70.212c12.315,22.792,45.063,26.14,45.063,26.14s2.412,15.042-4.903,21.005
			c-7.315,5.963-16.285,6.166-28.953-0.233c-12.667-6.399-29.021-1.526-34.323,5.135c-5.303,6.661,1.868,14.237,1.868,14.237
			s11.257-9.807,17.979-8.636c18.144,3.159,36.976,10.494,42.261,9.102c5.286-1.392,22.394-2.807,24.75-1.399
			s14.701-8.88,24.05-7.235c9.348,1.644,14.009,10.502,14.009,10.502s12.009-20.09-7.938-24.973
			c-13.864-3.394-34.323,7.936-34.323,7.936l23.885-32.915c-0.653,0.148-3.806-1.023-18.748-13.297
			c-17.251-14.17,5.213-27.511,11.053-30.604l3.983,2.363c0,0-12.623,5.206-15.705,13.363c6.138,0.736,11.779,1.113,16.638,1.107
			c29.5-0.035,79.398-14.771,100.04-26.251c-7.043-21.628-7.392-47.668-7.392-47.668l0.994-0.098
			c1.555,17.435,7.22,61.201,25.377,70.984c34.509,18.592,76.547,10.036,76.547,10.036c0.236-0.043,6.567,45.081-1.995,51.27
			c-7.646,5.526-20.584,6.942-33.244,0.543c-12.661-6.399-29.006-1.526-34.306,5.135c-5.301,6.66,1.866,14.236,1.866,14.236
			s11.252-9.806,17.97-8.635c18.135,3.159,36.957,10.494,42.24,9.102c5.283-1.392,22.383-2.808,24.738-1.4
			c2.354,1.407,14.693-8.879,24.037-7.234c9.344,1.644,14.002,10.502,14.002,10.502s12.003-20.09-7.935-24.973
			c-13.856-3.394-33.605,8.169-33.605,8.169l19.37-83.321c-7.526-3.041-6.948-3.595-37.807-16.104
			c-18.027-7.309-10.711-34.73-6.236-47.306l3.104-0.307c0,0-3.068,6.809-4.4,15.355c19.898,2,46.355,11.888,41.838,36.225
			c-0.413,2.123-1.014,4.16-1.764,6.121c4.493,1.956,5.818,2.498,9.904,4.146l-15.614,62.377
			c22.067-7.035,40.079-20.321,47.147-44.638C476.218,311.396,451.725,283.459,432.928,265.173z M395.896,97.149
			c0.944,0.876,1.931,1.728,2.959,2.549C398.855,99.699,397.888,98.756,395.896,97.149z M197.597,399.373l-0.165,0.227
			C197.64,399.553,197.597,399.373,197.597,399.373z"/>
	</g>
	<g>
		<path fill="none" stroke="#000000" stroke-miterlimit="10" d="M191.807,98.038c1.004,1.053,1.557,1.723,1.557,1.723
			C193.281,99.082,192.766,98.493,191.807,98.038z M234.561,408.009c47.224,13.303,73.904,10.966,116.225,12.726
			c12.852,0.115,26.232-0.4,39.091-2.265c0.829-14.277-2.253-34.508-2.253-34.508s-13.177,2.743-31.421,1.12
			c-24.412,4.696-59.258,9.161-95.971,5.189c-21.236-2.297-50.86-8.999-81.881-10.92c1.017,2.208,2.859,4.534,5.802,6.952
			c14.936,12.273,18.086,13.445,18.739,13.297l0.165-0.227c0,0,0.043,0.18-0.165,0.227l-0.731,1.008
			C212.703,402.419,223.396,404.863,234.561,408.009z M54.221,353.764l-0.233-0.155C54.043,353.814,54.221,353.764,54.221,353.764z
			 M63.032,420.845c0,0,27.702-18.492,58.343-21.938c1.648-0.186,3.265-0.339,4.889-0.5c-4.777-3.127-9.333-7.044-12.956-11.9
			c-26.215,10.292-54.476,30.604-54.476,30.604s3.812-10.817-7.702-14.003c-6.627-1.834-13.769,3.034-13.769,3.034
			s3.16,6.769,2.333,17.971c-0.668,9.068-11.435,22.173-11.435,22.173s14.718-9.514,24.971-8.869
			c11.063,0.695,15.169,7.235,15.169,7.235s8.487-1.215,7.468-14.938C75.095,419.314,63.032,420.845,63.032,420.845z
			 M368.75,112.302c0,0-24.857-13.872-59.276-23.106c-32.206-8.64-69.778-8.635-69.778-8.635s30.187,2.464,66.511,33.375
			c17.923,15.251,36.685,41.475,43.864,51.954c-7.799-13.243-7.531-28.585-0.224-39.351
			C355.173,118.692,359.545,113.929,368.75,112.302z M350.07,165.889c0.907,1.54,1.917,3.054,3.044,4.527
			C353.114,170.416,352.012,168.723,350.07,165.889z M242.495,268.907c-0.314,1.246,6.679,0.313,16.57-0.233
			c9.891-0.546,14.702-4.435,14.702-4.435c4.005-17.335,13.684-31.281,27.305-42.71c12.066-10.125,26.813-16.492,42.474-18.438
			c-0.183-0.211-13.372-24.604-25.204-36.643c-19.308-19.643-36.396-35.54-36.396-35.54s17.881,55.842,2.74,94.662
			C276.024,247.781,242.811,267.661,242.495,268.907z M409.823,24.08c0,0-36.265-9.269-91.015,0.467
			c-38.065,6.769-79.347,32.908-79.347,32.908s40.157-5.091,80.079,5.254c44.998,11.66,68.59,28.178,76.355,34.441
			c-14.507-13.454-19.147-33.044-12.911-48.797C387.699,36.446,398.027,28.02,409.823,24.08z M432.928,265.173
			c-16.988-16.526-58.428-32.444-97.083-23.105c-29.458,7.116-50.411,20.977-55.502,24.566c-0.012,0.058-0.029,0.114-0.041,0.173
			c0,0-6.558,5.932-25.204,7.235c-10.939,0.765-30.687-0.722-30.338-2.101c0.349-1.38,42.454-23.724,52.042-48.312
			c16.759-42.975-3.034-104.793-3.034-104.793s33.734,23.728,43.874,36.176c8.062,9.897,25.38,32.739,35.61,46.295
			c8.909-1.038,15.505-0.7,17.18-0.583c-14.682-19.084-54.832-70.396-75.194-87.723c-40.209-34.218-86.581-34.542-86.581-34.542
			s56.531-6.307,92.416,2.334c34.812,8.382,60.893,20.013,78.508,29.738c16.249-0.855,33.187,5.348,39.178,7.801
			c-17.918-12.465-58.031-37.723-104.15-49.675c-44.191-11.453-90.548-5.135-90.548-5.135s43.702-32.207,85.415-41.777
			c50.887-11.675,87.771-5.761,108.098,0.209c23.396-4.948,50.25,1.172,50.129,1.191c0,0-83.003-37.49-168.735-13.046
			c-74.112,21.131-112.393,74-112.245,73.961c0,0,42.611,1.896,59.51,21.238c39.41,45.11,20.5,120.508-10.269,143.536
			c-33.286,24.911-60.239,22.575-59.276-7.469c0.843-26.302,37.609-35.549,42.007-71.651c3.195-26.229-13.153-57.035-32.905-63.482
			c-12.902-4.211-18.351-4.046-20.647-3.246c-1.055,0.784-1.663,1.337-1.663,1.337s0.142-0.808,1.663-1.337
			c2.253-1.676,6.559-4.417,11.436-5.144c8.038-1.197,12.938-0.895,15.233,0.195c-3.59-3.765-12.952-12.423-23.445-12.824
			c-8.597-0.328-23.695,4.678-23.695,4.678s1.243-4.228,3.871-7.634c4.704-6.099,12.029-7.394,12.029-7.394s-12.981-3-21.216,1.177
			c-8.789,4.458-19.018,10.888-19.018,10.888s-0.794-4.316,1.661-8.338c4.175-6.843,8.589-6.488,8.589-6.488
			s-13.243-2.757-23.443,7.292c-6.151,6.059-11.042,21.93-22.637,20.305c-11.117-1.558-12.991,23.625-21.704,33.142
			c-8.713,9.516-24.652,29.328-24.271,36.642c0.381,7.315,10.346,17.494,13.536,13.77c6.116-7.14,28.364-33.913,47.339-31.85
			c-9.33,5.59-27.366,17.255-35.904,28.583c-9.578,12.707-10.495,20.56-21.282,22.961c-11.843,2.637-20.025-4.99-20.025-4.99
			s7.437,13.886,24.737,10.503c20.269-3.964,19.039-19.219,28.938-29.174c2.256-2.269,6.351-4.351,10.931-6.357
			c-4.779,5.249-9.42,10.043-11.631,12.425c-6.25,6.736,1.005,7.723,8.635,5.602s13.972-17.324,29.171-26.607
			c16.064-9.811,27.762-11.351,35.939,2.801c4.686,8.108-14.063,19.854-43.963,42.704c-22.34,17.073-34.445,39.585-38.406,61.425
			c-19.758,14.162-21.604,44.327-21.604,44.327s-14.929,3.028-21.188-4.031c-6.259-7.061-6.831-16.011-0.959-28.926
			c5.872-12.915,0.33-29.046-6.543-34.067c-6.873-5.021-14.147,2.452-14.147,2.452s10.261,10.839,9.368,17.6
			c-2.41,18.251-8.962,37.361-7.354,42.583c1.609,5.222,3.728,22.249,2.418,24.661c-1.309,2.411,9.477,14.316,8.219,23.721
			c-1.258,9.404-9.916,14.424-9.916,14.424s20.566,11.166,24.623-8.957c2.819-13.986-9.341-33.953-9.341-33.953l33.868,22.498
			c-0.175-0.646,0.866-3.843,12.512-19.271c3.262-4.322,6.571-6.3,9.761-6.747c0.908,1.345,1.865,2.637,2.874,3.866
			c5.824,7.096,14.994,13.44,25.862,18.897c0.643-20.744,6.11-41.303,6.11-41.303l2.819,1.672
			c-2.618,11.614-10.343,50.918,0.082,70.212c12.315,22.792,45.063,26.14,45.063,26.14s2.412,15.042-4.903,21.005
			c-7.315,5.963-16.285,6.166-28.953-0.233c-12.667-6.399-29.021-1.526-34.323,5.135c-5.303,6.661,1.868,14.237,1.868,14.237
			s11.257-9.807,17.979-8.636c18.144,3.159,36.976,10.494,42.261,9.102c5.286-1.392,22.394-2.807,24.75-1.399
			s14.701-8.88,24.05-7.235c9.348,1.644,14.009,10.502,14.009,10.502s12.009-20.09-7.938-24.973
			c-13.864-3.394-34.323,7.936-34.323,7.936l23.885-32.915c-0.653,0.148-3.806-1.023-18.748-13.297
			c-17.251-14.17,5.213-27.511,11.053-30.604l3.983,2.363c0,0-12.623,5.206-15.705,13.363c6.138,0.736,11.779,1.113,16.638,1.107
			c29.5-0.035,79.398-14.771,100.04-26.251c-7.043-21.628-7.392-47.668-7.392-47.668l0.994-0.098
			c1.555,17.435,7.22,61.201,25.377,70.984c34.509,18.592,76.547,10.036,76.547,10.036c0.236-0.043,6.567,45.081-1.995,51.27
			c-7.646,5.526-20.584,6.942-33.244,0.543c-12.661-6.399-29.006-1.526-34.306,5.135c-5.301,6.66,1.866,14.236,1.866,14.236
			s11.252-9.806,17.97-8.635c18.135,3.159,36.957,10.494,42.24,9.102c5.283-1.392,22.383-2.808,24.738-1.4
			c2.354,1.407,14.693-8.879,24.037-7.234c9.344,1.644,14.002,10.502,14.002,10.502s12.003-20.09-7.935-24.973
			c-13.856-3.394-33.605,8.169-33.605,8.169l19.37-83.321c-7.526-3.041-6.948-3.595-37.807-16.104
			c-18.027-7.309-10.711-34.73-6.236-47.306l3.104-0.307c0,0-3.068,6.809-4.4,15.355c19.898,2,46.355,11.888,41.838,36.225
			c-0.413,2.123-1.014,4.16-1.764,6.121c4.493,1.956,5.818,2.498,9.904,4.146l-15.614,62.377
			c22.067-7.035,40.079-20.321,47.147-44.638C476.218,311.396,451.725,283.459,432.928,265.173z M395.896,97.149
			c0.944,0.876,1.931,1.728,2.959,2.549C398.855,99.699,397.888,98.756,395.896,97.149z M197.597,399.373l-0.165,0.227
			C197.64,399.553,197.597,399.373,197.597,399.373z"/>
	</g>
</g>
</svg>
